<svg xmlns="http://www.w3.org/2000/svg" width="28" height="37.049" viewBox="0 0 28 37.049">
    <path id="Icon_awesome-phone-volume" data-name="Icon awesome-phone-volume" d="M6.844,35.646a23.363,23.363,0,0,1,0-33.042,1.209,1.209,0,0,1,1.5-.17L12.9,5.282a1.208,1.208,0,0,1,.482,1.474l-2.279,5.7a1.209,1.209,0,0,1-1.242.754l-3.924-.392a18.677,18.677,0,0,0,0,12.622l3.924-.392A1.209,1.209,0,0,1,11.1,25.8l2.279,5.7a1.209,1.209,0,0,1-.482,1.474L8.339,35.816a1.209,1.209,0,0,1-1.5-.17ZM17.376,6.713a4.5,4.5,0,0,1,0,4.574.847.847,0,0,1-1.316.181l-.42-.4a.85.85,0,0,1-.159-1.013,2.254,2.254,0,0,0,0-2.106.85.85,0,0,1,.159-1.013l.42-.4a.847.847,0,0,1,1.316.181ZM23.83.3a13.519,13.519,0,0,1,0,17.4.847.847,0,0,1-1.234.066l-.408-.391a.845.845,0,0,1-.065-1.152,11.266,11.266,0,0,0,0-14.444A.845.845,0,0,1,22.188.626L22.6.236A.847.847,0,0,1,23.83.3ZM20.6,3.461a9.013,9.013,0,0,1,0,11.077.848.848,0,0,1-1.256.092l-.409-.392a.843.843,0,0,1-.09-1.12,6.759,6.759,0,0,0,0-8.236.843.843,0,0,1,.09-1.12l.409-.392a.848.848,0,0,1,1.256.092Z" transform="translate(0.5 0.5)" fill="#fff" stroke="#fff" stroke-width="1"/>
  </svg>
  