<svg xmlns="http://www.w3.org/2000/svg" width="37" height="37.049" viewBox="0 0 37.004 37.049">
    <path id="Icon_awesome-briefcase" data-name="Icon awesome-briefcase" d="M22.5,23.625a1.125,1.125,0,0,1-1.125,1.125h-6.75A1.125,1.125,0,0,1,13.5,23.625V20.25H0V30.375A3.46,3.46,0,0,0,3.375,33.75h29.25A3.46,3.46,0,0,0,36,30.375V20.25H22.5ZM32.625,9H27V5.625A3.46,3.46,0,0,0,23.625,2.25H12.375A3.46,3.46,0,0,0,9,5.625V9H3.375A3.46,3.46,0,0,0,0,12.375V18H36V12.375A3.46,3.46,0,0,0,32.625,9ZM22.5,9h-9V6.75h9Z" transform="translate(0.5 -1.75)" fill="#fff" stroke="#fff" stroke-width="1"/>
  </svg>
  