<svg xmlns="http://www.w3.org/2000/svg" width="37.001" height="37.012" viewBox="0 0 37.001 37.012">
    <path id="Icon_awesome-book-reader" data-name="Icon awesome-book-reader" d="M24.75,6.75A6.75,6.75,0,1,0,18,13.5,6.75,6.75,0,0,0,24.75,6.75Zm-8.326,10.2C12.253,14.4,5.5,13.7,2.1,13.5a1.945,1.945,0,0,0-2.1,1.9V31.074a1.934,1.934,0,0,0,1.863,1.9c3.07.161,9.281.751,13.573,2.913a.979.979,0,0,0,1.44-.835v-17.3a.936.936,0,0,0-.451-.806ZM33.9,13.5c-3.4.193-10.157.9-14.328,3.449a.953.953,0,0,0-.451.818V35.052a.982.982,0,0,0,1.444.837c4.292-2.16,10.5-2.75,13.568-2.911A1.935,1.935,0,0,0,36,31.075V15.408A1.946,1.946,0,0,0,33.9,13.5Z" transform="translate(0.5 0.5)" fill="#fff" stroke="#fff" stroke-width="1"/>
  </svg>
  